<?xml version="1.0" encoding="UTF-8"?><svg id="White_and_Green" xmlns="http://www.w3.org/2000/svg" xmlns:xlink="http://www.w3.org/1999/xlink" viewBox="0 0 485.12 176.57"><defs><linearGradient id="linear-gradient" x1="346.6" y1="89.82" x2="450.66" y2="89.82" gradientUnits="userSpaceOnUse"><stop offset="0" stop-color="#25af4b"/><stop offset="1" stop-color="#a4cd3a"/></linearGradient><linearGradient id="linear-gradient-2" x1="346.1" x2="451.16" xlink:href="#linear-gradient"/><linearGradient id="linear-gradient-3" x1="391.22" x2="445.08" xlink:href="#linear-gradient"/><linearGradient id="linear-gradient-4" x1="390.72" x2="445.58" xlink:href="#linear-gradient"/><linearGradient id="linear-gradient-5" x1="352.94" x2="407.69" xlink:href="#linear-gradient"/><linearGradient id="linear-gradient-6" x1="352.44" x2="408.19" xlink:href="#linear-gradient"/></defs><path d="M397.23,110.13l52.52-67.84-34.24,47.88,35.15,47.2h-35.15l-18.71-26.68.43-.55ZM347.51,137.36l33.69-48.56-34.6-46.51h35.15l19.59,26.24-53.83,68.83Z" style="fill:url(#linear-gradient); stroke:url(#linear-gradient-2); stroke-linecap:round; stroke-linejoin:round;"/><polygon points="391.65 110.13 444.17 42.29 409.93 90.16 445.08 137.36 409.93 137.36 391.22 110.68 391.65 110.13" style="fill:url(#linear-gradient-3); stroke:url(#linear-gradient-4); stroke-linecap:round; stroke-linejoin:round;"/><polygon points="353.86 137.36 387.55 88.8 352.94 42.29 388.09 42.29 407.69 68.53 353.86 137.36" style="fill:url(#linear-gradient-5); stroke:url(#linear-gradient-6); stroke-linejoin:round;"/><path d="M271.22,85.86c-2.45,4.52-6.27,8.17-11.49,10.93-5.21,2.77-11.79,4.15-19.72,4.15h-16.19v37.08h-19.37V41.45h35.56c7.47,0,13.84,1.29,19.1,3.88,5.26,2.58,9.2,6.13,11.83,10.65,2.63,4.52,3.94,9.64,3.94,15.36,0,5.17-1.22,10.01-3.66,14.53ZM251.08,81.64c2.58-2.44,3.88-5.88,3.88-10.31,0-9.41-5.26-14.11-15.78-14.11h-15.36v28.09h15.36c5.35,0,9.31-1.22,11.9-3.67Z" style="fill:#fff;"/><path d="M108.64,138.36h-20.2l-33.78-59.87v59.87h-20.2V41.3h20.2l33.78,60.14v-60.14h20.2v97.06Z" style="fill:#fff;"/><path d="M198.48,41.3v97.06h-18.04v-58.21l-16.56,58.21h-14.56l-16.67-58.35v58.35h-18.04V41.3h21.31l20.78,67.19,20.57-67.19h21.21Z" style="fill:#fff;"/><path d="M349.07,96.66c3.5,4.43,5.26,9.5,5.26,15.22,0,5.17-1.27,9.71-3.8,13.63-2.54,3.92-6.21,6.99-11,9.2s-10.47,3.32-17.02,3.32h-41.66V41.45h39.86c6.55,0,12.2,1.06,16.95,3.18,4.75,2.12,8.35,5.07,10.8,8.86,2.44,3.78,3.66,8.07,3.66,12.87,0,5.63-1.5,10.33-4.49,14.11-3,3.78-6.99,6.46-11.97,8.03,5.44,1.02,9.92,3.74,13.43,8.16ZM300.22,81.3h17.71c4.61,0,8.17-1.04,10.66-3.11,2.49-2.08,3.74-5.05,3.74-8.93s-1.25-6.87-3.74-8.99c-2.49-2.12-6.04-3.18-10.66-3.18h-17.71v24.22ZM330.74,118.94c2.63-2.21,3.94-5.35,3.94-9.41s-1.39-7.41-4.15-9.76c-2.77-2.35-6.51-3.53-11.21-3.53h-19.1v26.01h19.51c4.71,0,8.37-1.11,11-3.32Z" style="fill:#fff;"/><rect y="-.34" width="485.12" height="176.57" style="fill:none;"/></svg>