<?xml version="1.0" encoding="UTF-8"?><svg id="X_Isolated_Green" xmlns="http://www.w3.org/2000/svg" xmlns:xlink="http://www.w3.org/1999/xlink" viewBox="0 0 195.93 176.57"><defs><linearGradient id="linear-gradient" x1="45.93" y1="88.28" x2="150" y2="88.28" gradientUnits="userSpaceOnUse"><stop offset="0" stop-color="#25af4b"/><stop offset="1" stop-color="#a4cd3a"/></linearGradient><linearGradient id="linear-gradient-2" x1="45.43" x2="150.5" xlink:href="#linear-gradient"/><linearGradient id="linear-gradient-3" x1="90.56" x2="144.42" xlink:href="#linear-gradient"/><linearGradient id="linear-gradient-4" x1="90.06" x2="144.92" xlink:href="#linear-gradient"/><linearGradient id="linear-gradient-5" x1="52.28" x2="107.02" xlink:href="#linear-gradient"/><linearGradient id="linear-gradient-6" x1="51.78" x2="107.52" xlink:href="#linear-gradient"/></defs><path d="M96.56,108.59l52.52-67.84-34.24,47.88,35.15,47.2h-35.15l-18.71-26.68.43-.55ZM46.85,135.82l33.69-48.56-34.6-46.51h35.15l19.59,26.24-53.83,68.83Z" style="fill:url(#linear-gradient); stroke:url(#linear-gradient-2); stroke-linecap:round; stroke-linejoin:round;"/><polygon points="90.98 108.59 143.51 40.75 109.27 88.63 144.42 135.82 109.27 135.82 90.56 109.14 90.98 108.59" style="fill:url(#linear-gradient-3); stroke:url(#linear-gradient-4); stroke-linecap:round; stroke-linejoin:round;"/><polygon points="53.19 135.82 86.88 87.26 52.28 40.75 87.43 40.75 107.02 66.99 53.19 135.82" style="fill:url(#linear-gradient-5); stroke:url(#linear-gradient-6); stroke-linejoin:round;"/></svg>