<?xml version="1.0" encoding="UTF-8"?>
<svg id="Layer_1" xmlns="http://www.w3.org/2000/svg" xmlns:xlink="http://www.w3.org/1999/xlink" viewBox="150 150 295.28 295.28">
<defs>
<linearGradient id="linear-gradient" x1="131.31" y1="297.39" x2="463.56" y2="297.39" gradientUnits="userSpaceOnUse">
<stop offset="0" stop-color="#25af4b"/>
<stop offset="1" stop-color="#a4cd3a"/>
</linearGradient>
<linearGradient id="linear-gradient-2" x1="155.52" y1="297.39" x2="439.35" y2="297.39" xlink:href="#linear-gradient"/>
<linearGradient id="linear-gradient-3" x1="151.02" y1="297.39" x2="443.85" y2="297.39" xlink:href="#linear-gradient"/>
<linearGradient id="linear-gradient-4" x1="271.77" y1="297.39" x2="418.67" y2="297.39" xlink:href="#linear-gradient"/>
<linearGradient id="linear-gradient-5" x1="267.27" y1="297.39" x2="423.17" y2="297.39" xlink:href="#linear-gradient"/>
<linearGradient id="linear-gradient-6" x1="178.28" y1="297.39" x2="327.59" y2="297.39" xlink:href="#linear-gradient"/>
<linearGradient id="linear-gradient-7" x1="173.78" y1="297.39" x2="332.09" y2="297.39" xlink:href="#linear-gradient"/>
</defs>
<path d="M293.6,352.78l143.25-185.03-93.38,130.57,95.88,128.72h-95.88l-51.03-72.76,1.16-1.5ZM158.01,427.03l91.88-132.43-94.38-126.86h95.88l53.43,71.56-146.81,187.73Z" style="fill:url(#linear-gradient-2); stroke:url(#linear-gradient-3); stroke-linecap:round; stroke-linejoin:round; stroke-width:9px;"/>
<polygon points="272.93 352.78 416.18 167.74 322.8 298.32 418.67 427.03 322.8 427.03 271.77 354.28 272.93 352.78" style="fill:url(#linear-gradient-4); stroke:url(#linear-gradient-5); stroke-linecap:round; stroke-linejoin:round; stroke-width:9px;"/>
<polygon points="180.77 427.03 272.66 294.6 178.28 167.74 274.15 167.74 327.59 239.3 180.77 427.03" style="fill:url(#linear-gradient-6); stroke:url(#linear-gradient-7); stroke-linejoin:round; stroke-width:9px;"/>
</svg>